<svg id="logo" xmlns="http://www.w3.org/2000/svg" viewBox="0 0 764.87 190.5">
  <title>logo</title>
  <path id="wordmark2" d="M411.69,44.3a15.69,15.69,0,0,0-2.32-.19,14.42,14.42,0,0,0-10.19,4.12Q394.8,52.18,390,62V45.85H363.73V57.71a30.07,30.07,0,0,0-7.92-12.43q-9.58-8.76-25.61-8T305.34,47.78a30.76,30.76,0,0,0-7.08,14.07h-4.54V37.29L266.84,50.38V61.85h-4.9v3.41c-.12-.13-.22-.26-.34-.38A31,31,0,0,0,247.81,57,43,43,0,0,0,230.43,56a31.32,31.32,0,0,0-15.53,6.25,14.65,14.65,0,0,0-4.25,5.38V56.37q0-13.33-4.77-19.91T191.32,30a28.21,28.21,0,0,0-9.8,1.8A61.73,61.73,0,0,0,169.79,38V30.85H142.2V63.92q-9.21-7.68-24.38-7.68-10.84,0-18.63,3.92L91.77,2.82H68.5L55.42,55.35q-1,4.13-1.81,8a52.17,52.17,0,0,0-.83,6.06,87.58,87.58,0,0,0-2.32-12.12c-.39-1.54-.54-2.14-.46-1.8l-13-52.66H13.85L.57,105H22.35l5.1-44.15q.26-2.84.54-5.64t.55-5.71q.2-2.83.42-5.7T29.38,38A121,121,0,0,0,32.6,54.13a29.1,29.1,0,0,0,.71,3L45,105h15.6L72.24,57.09c.22-.69.47-1.68.77-3A141.25,141.25,0,0,0,76.24,38q.32,6.57.77,12.44t1,10.44L83.07,105h1.29a29.76,29.76,0,0,0,7.29,11.39q9.48,9.28,26.17,9.28t26.1-9.21q7.71-7.55,9.15-19.65h17.11V53.41a23.35,23.35,0,0,1,4-2.9,7.78,7.78,0,0,1,3.29-.9,4.22,4.22,0,0,1,4.19,2.57q1.15,2.52,1.16,11.35V96.79h27.84V87A18.45,18.45,0,0,0,213,90.66q4.26,5.28,12.51,7.6l10.05,2.64c.43.13,1.14.33,2.13.58q8.44,2.26,8.44,5.35a4,4,0,0,1-1.61,3.29,6.49,6.49,0,0,1-4.19,1.29,13,13,0,0,1-8.06-2.58,13.56,13.56,0,0,1-4.89-7.15h-18q-1,9.21,4.87,15.21a31.93,31.93,0,0,0,14.44,8.44,43.48,43.48,0,0,0,18,1.19,29,29,0,0,0,15.53-6.6A16.07,16.07,0,0,0,267.1,112c.56,5.45,2.06,9.53,4.51,12.21q4.71,5.42,15.34,5.41a32.63,32.63,0,0,0,7.61-1,53.81,53.81,0,0,0,9-3.1v-19a6,6,0,0,1-2.45.84,10.34,10.34,0,0,1-2.45.26c-1.85,0-3.12-.54-3.8-1.61s-1.1-3.24-1.1-6.38V80.22h4.39q2.1,11.53,9.69,18.48,9.65,8.7,26.12,7.91a45.22,45.22,0,0,0,20.82-5.94,24.1,24.1,0,0,0,9-9.44v20.56h27.53V87.29q0-8.12,3.48-12.18t10.57-4.06a18.44,18.44,0,0,1,4.64.58,19.28,19.28,0,0,1,4.51,1.93V45c-.52-.13-1-.24-1.48-.32A9.29,9.29,0,0,1,411.69,44.3ZM124.14,104.19c-1.51,3-3.61,4.58-6.32,4.58s-4.83-1.53-6.38-4.58-2.26-7.5-2.26-13.08.76-10.06,2.26-13.28,3.67-4.64,6.38-4.64,4.77,1.55,6.32,4.64,2.19,7.56,2.19,13.28S125.6,101.18,124.14,104.19ZM263.5,90.85q-4.77-5.09-14.76-7.8l-9.22-2.58c-4-1-6.51-1.93-7.54-2.7a3.58,3.58,0,0,1-1.55-3,3.5,3.5,0,0,1,1.75-3,7.26,7.26,0,0,1,4.38-1.22,13.45,13.45,0,0,1,7.54,2.06,14.74,14.74,0,0,1,4.77,6.25h13.07v1.36h4.9V96.36A16.55,16.55,0,0,0,263.5,90.85Zm60.72-26.3q-.25-5.14,1.67-8.21a6.37,6.37,0,0,1,5.46-3.1,6.56,6.56,0,0,1,5.74,2.56c1.38,1.87,2.16,4.54,2.32,8l.08,1.61-15.19.73Zm21.71,18q-1.64,7.5-8.85,7.85-5.54.27-8.56-3.53Q325.37,83.22,325,76l38.7-1.87v7.55Z" fill="#ff001c" stroke="#f9cdcd" stroke-miterlimit="10"/>
  <path id="wordmark1" d="M740.33,35.85l-14.82,38.8-7.86-20.43-7.09-18.37H678.4l3.86,8.25,13.79,29.16H668.94V25.85H657.79c3.6-1.7,6.2-6.58,6.2-12.35,0-7.18-4-13-9-13s-9,5.82-9,13c0,5.77,2.6,10.65,6.2,12.35H641V50.92a18.29,18.29,0,0,0-1.35-2.53Q635.24,42,626.28,42a26.15,26.15,0,0,0-9.79,2.12,69.38,69.38,0,0,0-12.32,7,17.15,17.15,0,0,0-6-6.84,15.72,15.72,0,0,0-8.7-2.25,22.47,22.47,0,0,0-8.9,1.87,50.85,50.85,0,0,0-10.69,6.31V42.85H544.81V71.69c-.41-.44-.83-.87-1.28-1.27q-7.41-6.7-23.14-6.71c-10.85,0-20.48,2.29-28.9,6.81V60.91h-28.1V43.19h29.77V20.82H440.51V123h22.88V82.82h27.55v.23a82.34,82.34,0,0,1,18.34-3.8q10.53-1.09,11.05,9.92a31.15,31.15,0,0,0-5.19-1c-1.74-.17-3.51-.33-5.32-.45a19.82,19.82,0,0,0-12.05,3,21.94,21.94,0,0,0-7.9,8.38A17.8,17.8,0,0,0,488,109.86q.74,5.74,6,10.12a17,17,0,0,0,11.41,4.45,24.89,24.89,0,0,0,15-5V124H551V108.79h19.2V65.47a27.71,27.71,0,0,1,3.67-2.9,5.82,5.82,0,0,1,2.9-.9,3.71,3.71,0,0,1,3.8,2.51q1.11,2.66,1.1,11.54v33.07H607V65.47a24.87,24.87,0,0,1,3.73-2.9,5.85,5.85,0,0,1,2.9-.9,3.86,3.86,0,0,1,3.81,2.51q1,2.46,1,11.54v33.07h25.39v-17h24.94v73h27.84V74.4l12.68,26.81-9,22H727.9l36.22-87.4Zm-220,74.92a7.23,7.23,0,0,1-4.77,1.61,6.58,6.58,0,0,1-4.64-1.61,5.44,5.44,0,0,1-1.81-4.13,4.71,4.71,0,0,1,1.74-3.74,6.41,6.41,0,0,1,4.45-1.42,15.63,15.63,0,0,1,5,.91Z" fill="#ff001c" stroke="#f9cdcd" stroke-miterlimit="10"/>
  <circle id="red" cx="230.99" cy="177.5" r="13" fill="#ff7b73"/>
  <circle id="orange" cx="282.99" cy="177.5" r="13" fill="#ffb645"/>
  <circle id="yellow" cx="334.99" cy="177.5" r="13" fill="#fcff2e"/>
  <circle id="green" cx="386.99" cy="177.5" r="13" fill="#baff9b"/>
  <circle id="cyan" cx="438.99" cy="177.5" r="13" fill="#4179d4"/>
  <circle id="blue" cx="490.99" cy="177.5" r="13" fill="#24b5c7"/>
  <circle id="purple" cx="542.99" cy="177.5" r="13" fill="#a486d0"/>
</svg>
